<?xml version="1.0" encoding="utf-8"?>
<!-- Generator: Adobe Illustrator 19.1.0, SVG Export Plug-In . SVG Version: 6.00 Build 0)  -->
<svg version="1.1" id="Warstwa_1" xmlns="http://www.w3.org/2000/svg" xmlns:xlink="http://www.w3.org/1999/xlink" x="0px" y="0px"
	 width="600px" height="600px" viewBox="0 0 600 600" style="enable-background:new 0 0 600 600;" xml:space="preserve">
<style type="text/css">
	.st0{fill:#FFFFFF;}
</style>
<g>
	<path class="st0" d="M152.9,202.9c0,0.4,0,0.8-0.1,1.2c0.1,0.3,0.1,0.5,0.1,0.8v5.9c0,19.7-20.1,26.4-32.4,26.4
		c-7.3,0-12.2-1.7-16.3-3.1c-2.4-1-4.2-3.6-4.2-6.6c0-3.9,3.2-7.1,7.1-7.1c0.8,0,1.4,0,2.1,0.3c3.6,1,7.6,1.7,11.4,1.7
		c9.9,0,15.2-5.7,15.2-11.6v-5.9v-1.2c0-0.3,0-0.4,0-0.5c-1,3.5-8.6,8.5-18,8.5c-14,0-31.4-10.9-31.4-34.4
		c0-22.9,17.2-34.2,31.4-34.2c10.9,0,15.8,4.9,18,6.9v1.6c0-4.8,3.9-8.6,8.6-8.6c4.6,0,8.6,3.9,8.6,8.6V202.9z M136.4,177.3
		c0-14.3-7.9-19.4-16.5-19.4c-8,0-16.5,7.1-16.5,19.4c0,12.5,8.5,19.6,16.5,19.6C128.6,196.8,136.4,191.5,136.4,177.3z"/>
	<path class="st0" d="M210.8,151.1c0,4.6-3.9,8.2-8.7,8.2H200c-9.9,0-16.6,4.1-20.2,13v30.5c0,4.8-4,8.6-8.6,8.6
		c-4.6,0-8.6-3.9-8.6-8.6V152c0-4.8,4-8.6,8.6-8.6c4.6,0,8.6,3.9,8.6,8.6v3.3c5.3-6.8,13.4-12.2,22.4-12.2
		C207.7,143.2,210.8,146.9,210.8,151.1z"/>
	<path class="st0" d="M280.1,177.4c0,23.4-20.1,34.2-34,34.2c-13.9,0-34-10.8-34-34.2c0-23.2,20.1-34.3,34-34.3
		C260,143,280.1,154.2,280.1,177.4z M229.4,177.4c0,12.7,8.7,19.3,16.7,19.3c8,0,16.7-6.6,16.7-19.3c0-12.9-8.7-19.4-16.7-19.4
		C238.1,158,229.4,164.5,229.4,177.4z"/>
	<path class="st0" d="M356.5,177.3c0,23.4-17.4,34.4-31.4,34.4c-9.5,0-17-5-18-8.5c-0.1,4.6-4,8.4-8.6,8.4c-4.6,0-8.6-3.9-8.6-8.6
		v-74.6c0-4.6,4-8.5,8.6-8.5c4.6,0,8.6,3.9,8.6,8.5v21.9c2.1-2.2,6.9-7.1,18-7.1C339.1,143,356.5,154.4,356.5,177.3z M339.3,177.3
		c0-12.3-8.5-19.4-16.6-19.4c-8.5,0-16.3,5.1-16.3,19.4c0,14.3,7.8,19.6,16.3,19.6C330.8,196.8,339.3,189.7,339.3,177.3z"/>
	<path class="st0" d="M383.4,128.5v74.2c0,4.9-3.9,8.7-8.7,8.7c-4.8,0-8.8-3.9-8.8-8.7v-74.2c0-4.9,4-8.7,8.8-8.7
		C379.5,119.7,383.4,123.6,383.4,128.5z"/>
	<path class="st0" d="M460.2,151.5v51.3c0,4.8-4,8.6-8.6,8.6c-4.6,0-8.6-3.7-8.6-8.4c-1.2,3.5-8.5,8.5-18,8.5
		c-14,0-31.4-10.9-31.4-34.4c0-22.9,17.2-34.2,31.4-34.2c10.9,0,15.8,4.9,18,6.9v1.6c0-4.8,3.9-8.6,8.6-8.6
		C456.2,142.9,460.2,146.8,460.2,151.5z M443.7,177.3c0-14.3-7.9-19.4-16.5-19.4c-8,0-16.5,7.1-16.5,19.4c0,12.5,8.5,19.6,16.5,19.6
		C435.8,196.8,443.7,191.5,443.7,177.3z"/>
</g>
<path class="st0" d="M484,179.2c-3.9,0-7.3-3.3-7.3-7.3c0-1.2,0.3-2.5,0.7-3.3l22.5-47.7h-25.5c-3.7,0-6.7-2.9-6.7-6.6
	c0-3.6,3-6.4,6.7-6.4h31.7c3.6,0,6.7,1.6,8.4,4.3c1.8,2.7,1.9,6.2,0.4,9.4l-24.4,53.2C489.4,177.5,486.8,179.2,484,179.2z"/>
<g>
	<g>
		<path class="st0" d="M115.8,355.4c0.5,0.6,0.7,0.9,0.7,1.5c0,1-0.8,1.8-1.9,1.8c-0.6,0-1.1-0.3-1.6-0.9c-2-2.9-5.5-4.2-8.8-4.2
			c-5.1,0-11.5,4.1-11.5,12.8c0,8.8,6.4,12.9,11.5,12.9c3.3,0,6.7-1.4,8.8-4.3c0.4-0.6,1-0.9,1.5-0.9c1,0,1.9,0.8,1.9,1.8
			c0,0.5-0.2,0.9-0.7,1.5c-2.7,3.6-7.3,5.4-11.5,5.4c-6.8,0-15.5-5.4-15.5-16.5c0-11,8.8-16.4,15.5-16.4
			C108.4,350,113,351.8,115.8,355.4z"/>
		<path class="st0" d="M153.7,366.4c0,11.1-8.7,16.5-15.5,16.5c-6.9,0-15.6-5.4-15.6-16.5c0-11,8.7-16.4,15.6-16.4
			C145.1,350,153.7,355.4,153.7,366.4z M126.6,366.4c0,8.8,6.3,12.9,11.6,12.9c5.2,0,11.5-4.1,11.5-12.9c0-8.8-6.3-12.8-11.5-12.8
			C133,353.6,126.6,357.6,126.6,366.4z"/>
		<path class="st0" d="M206,352.1c0,0.3-0.1,0.6-0.2,0.9l-9.5,28c-0.4,0.9-0.9,1.5-1.7,1.5c-0.8,0-1.3-0.6-1.8-1.5l-10.3-24.4
			L172.3,381c-0.4,0.9-0.9,1.5-1.8,1.5c-0.8,0-1.4-0.6-1.7-1.5l-9.6-28c-0.1-0.3-0.2-0.6-0.2-0.9c0-1.1,0.9-1.9,1.9-1.9
			c0.8,0,1.5,0.5,1.7,1.2l8.1,24.8l10-24.7c0.3-0.9,0.9-1.3,1.8-1.3c0.9,0,1.5,0.4,1.9,1.3l10,24.7l8-24.8c0.3-0.7,1-1.2,1.7-1.2
			C205.2,350.2,206,351,206,352.1z"/>
		<path class="st0" d="M242.4,366.4c0,11.1-8.7,16.5-15.5,16.5c-6.9,0-15.6-5.4-15.6-16.5c0-11,8.7-16.4,15.6-16.4
			C233.7,350,242.4,355.4,242.4,366.4z M215.3,366.4c0,8.8,6.3,12.9,11.6,12.9c5.2,0,11.5-4.1,11.5-12.9c0-8.8-6.3-12.8-11.5-12.8
			C221.7,353.6,215.3,357.6,215.3,366.4z"/>
		<path class="st0" d="M269.8,351.9c0,1-0.8,1.9-2.1,1.9h-1.1c-5.9,0-9.9,4.3-11.5,8.6v18.4c0,1.1-0.9,2-2,2c-1.1,0-2-0.9-2-2v-28.5
			c0-1.1,0.9-2,2-2c1.1,0,2,0.9,2,2v4.7c2.2-3.6,6.5-6.8,12-6.8C268.6,350.1,269.8,350.6,269.8,351.9z"/>
		<path class="st0" d="M301.7,382.7c-0.5,0-1-0.2-1.3-0.5L286,367.9l-4.9,5v7.8c0,1-0.9,2-2,2c-1.1,0-2-1-2-2v-39.7c0-1.1,0.9-2,2-2
			c1.1,0,2,0.9,2,2v26.7l16.3-17.1c0.3-0.3,0.9-0.6,1.4-0.6c1,0,1.8,0.8,1.8,1.8c0,0.5-0.2,0.9-0.6,1.2l-11.6,12.1l14.5,14.4
			c0.3,0.4,0.5,0.8,0.5,1.3C303.5,382,302.7,382.7,301.7,382.7z"/>
		<path class="st0" d="M311,341.1c0-1.1,0.9-2.1,2.1-2.1c1.2,0,2.1,1,2.1,2.1c0,1.2-0.9,2.1-2.1,2.1
			C311.9,343.2,311,342.3,311,341.1z M315.2,352.2v28.5c0,1.2-0.9,2.1-2,2.1c-1.2,0-2-0.9-2-2.1v-28.5c0-1.1,0.9-2,2-2
			C314.3,350.2,315.2,351.1,315.2,352.2z"/>
		<path class="st0" d="M353.7,363.8v16.9c0,1.1-0.9,2.1-2,2.1c-1.1,0-2-1-2-2.1v-16.9c0-7.2-4-10.2-9.2-10.2c-6,0-10.3,5.6-11,9.8
			v17.3c0,1.1-0.9,2.1-2,2.1c-1.1,0-2-1-2-2.1v-28.5c0-1,0.9-2,2-2c1.1,0,2,0.9,2,2v6.1c0.4-2.5,4.2-8.2,11.5-8.2
			C347.5,350.1,353.7,354,353.7,363.8z"/>
		<path class="st0" d="M392.7,380.7v0.3v1.4c0,9.6-8.2,12.6-13.9,12.6c-4.6,0-7.5-1.2-9.1-2.2c-0.4-0.2-0.8-0.8-0.8-1.3
			c0-0.9,0.7-1.7,1.6-1.7c0.2,0,0.4,0.1,0.6,0.2c1.7,0.8,4.2,1.5,7.6,1.5c5.2,0,9.9-3,9.9-9.1v-6.6c-2,4.4-6.7,7-11.7,7
			c-6.8,0-15.2-5.4-15.2-16.5c0-11,8.4-16.4,15.2-16.4c5,0,9.6,2.4,11.7,6.7v-4.6c0-1.1,0.9-2,2-2c1.1,0,2,0.9,2,2V380.7z
			 M388.8,366.4c0-9-6.2-12.9-11.5-12.9c-5.2,0-11.6,4.2-11.6,12.9c0,8.8,6.4,12.9,11.6,12.9C382.6,379.3,388.8,375.1,388.8,366.4z"
			/>
		<path class="st0" d="M110.1,416.2c0,0.9-0.8,1.6-1.7,1.6h-7.2v7.4c0,0.9-0.7,1.7-1.6,1.7c-0.9,0-1.6-0.8-1.6-1.7v-7.4h-7.2
			c-0.9,0-1.7-0.7-1.7-1.6c0-0.9,0.8-1.6,1.7-1.6h7.2v-7c0-0.9,0.7-1.7,1.6-1.7c0.9,0,1.6,0.8,1.6,1.7v7h7.2
			C109.3,414.6,110.1,415.4,110.1,416.2z"/>
		<path class="st0" d="M115.3,458.9v-15.5c0-1.1,0.9-2,2-2c1.2,0,2.1,0.9,2.1,2V483c0,1-0.9,2-2,2c-1.1,0-2-1-2-2v-5
			c-1.9,4.5-6.7,7.1-11.7,7.1c-6.8,0-15.2-5.4-15.2-16.5c0-11,8.4-16.4,15.2-16.4C108.6,452.3,113.1,454.6,115.3,458.9z
			 M115.5,468.7c0-9-6.2-12.9-11.5-12.9c-5.2,0-11.6,4.2-11.6,12.9c0,8.8,6.4,12.9,11.6,12.9C109.2,481.5,115.5,477.4,115.5,468.7z"
			/>
		<path class="st0" d="M159,467.9c0,1.5-0.9,2.3-2.5,2.3h-24.3c0.6,7.7,6.6,11.3,11.7,11.3c3.4,0,6.1-1,8.1-2.8
			c0.6-0.6,1.1-0.8,1.7-0.8c1,0,1.7,0.6,1.7,1.6c0,0.7-0.2,1.2-1,1.8c-2.8,2.5-6.5,3.8-10.5,3.8c-6.9,0-15.8-5.4-15.8-16.5
			c0-11,8.7-16.4,15.6-16.4C150.6,452.3,159,457.8,159,467.9z M132.3,467h22.8c-0.6-7.6-6.5-11.2-11.3-11.2
			C138.8,455.8,132.9,459.4,132.3,467z"/>
		<path class="st0" d="M187.6,457.8c0.2,0.3,0.4,0.7,0.4,1.2c0,0.9-0.8,1.7-1.8,1.7c-0.7,0-1.3-0.4-1.6-0.9c-1.5-2.5-3.8-4-7.5-4
			c-4.4,0-7,2.3-7,5.1c0,2.8,1.6,4.4,5.4,5.2l4.4,1c5.8,1.4,9.4,3.7,9.4,9c0,5.3-6,9-12.1,9c-5.2,0-9.7-2.4-11.4-5.9
			c-0.4-0.6-0.6-1.2-0.6-1.7c0-1,0.8-1.8,1.9-1.8c0.7,0,1.4,0.6,1.7,1.2c1.3,2.9,4.4,4.6,8.4,4.6c4.3,0,8-2.3,8-5.5
			c0-3.3-2.3-4.6-5.5-5.4l-5.3-1.3c-5.7-1.4-8.4-4.2-8.4-8.6c0-4.7,4.9-8.6,11.1-8.6C182.2,452.3,185.5,454.3,187.6,457.8z"/>
		<path class="st0" d="M197.8,443.4c0-1.1,0.9-2.1,2.1-2.1c1.2,0,2.1,1,2.1,2.1c0,1.2-0.9,2.1-2.1,2.1
			C198.8,445.5,197.8,444.6,197.8,443.4z M202,454.5V483c0,1.2-0.9,2.1-2,2.1c-1.2,0-2-0.9-2-2.1v-28.5c0-1.1,0.9-2,2-2
			C201.1,452.5,202,453.4,202,454.5z"/>
		<path class="st0" d="M241.5,483v0.3v1.4c0,9.6-8.2,12.6-13.9,12.6c-4.6,0-7.5-1.2-9.1-2.2c-0.4-0.2-0.8-0.8-0.8-1.4
			c0-0.9,0.7-1.7,1.6-1.7c0.2,0,0.4,0.1,0.6,0.2c1.7,0.8,4.3,1.5,7.6,1.5c5.2,0,9.9-3,9.9-9.1v-6.6c-2,4.4-6.7,7-11.7,7
			c-6.8,0-15.2-5.4-15.2-16.5c0-11,8.4-16.4,15.2-16.4c5,0,9.6,2.4,11.7,6.7v-4.6c0-1.1,0.9-2,2-2c1.1,0,2,0.9,2,2V483z
			 M237.6,468.7c0-9-6.2-12.9-11.5-12.9c-5.2,0-11.6,4.2-11.6,12.9c0,8.8,6.4,12.9,11.6,12.9C231.3,481.5,237.6,477.4,237.6,468.7z"
			/>
		<path class="st0" d="M279.4,466.1V483c0,1.1-0.9,2.1-2,2.1c-1.1,0-2-1-2-2.1v-16.9c0-7.1-4-10.2-9.2-10.2c-6,0-10.3,5.6-11,9.8
			V483c0,1.1-0.9,2.1-2,2.1c-1.1,0-2-1-2-2.1v-28.5c0-1,0.9-2,2-2c1.1,0,2,0.9,2,2v6.1c0.4-2.5,4.2-8.2,11.5-8.2
			C273.2,452.3,279.4,456.3,279.4,466.1z"/>
	</g>
</g>
</svg>
