<?xml version="1.0" encoding="UTF-8" standalone="no"?>
<svg width="40px" height="30px" viewBox="0 0 40 30" version="1.1" xmlns="http://www.w3.org/2000/svg" xmlns:xlink="http://www.w3.org/1999/xlink" xmlns:sketch="http://www.bohemiancoding.com/sketch/ns">
    <!-- Generator: Sketch 3.4.4 (17249) - http://www.bohemiancoding.com/sketch -->
    <title>next-white</title>
    <desc>Created with Sketch.</desc>
    <defs></defs>
    <g id="Page-1" stroke="none" stroke-width="1" fill="none" fill-rule="evenodd" sketch:type="MSPage">
        <g id="Artboard-1" sketch:type="MSArtboardGroup" transform="translate(-1381.000000, -2225.000000)" fill="#FFFFFF">
            <path d="M1420.14106,2238.68577 L1406.9995,2225.54403 C1406.27394,2224.81884 1405.0975,2224.81847 1404.371,2225.54403 C1403.64544,2226.26978 1403.64525,2227.44659 1404.371,2228.17253 L1414.28005,2238.08157 L1382.85851,2238.08157 C1381.83224,2238.08157 1381,2238.91381 1381,2239.94009 C1381,2240.96636 1381.83224,2241.7986 1382.85851,2241.7986 L1414.39973,2241.7986 L1404.371,2251.82733 C1403.64525,2252.55308 1403.64525,2253.72989 1404.371,2254.45583 C1404.73416,2254.81861 1405.20957,2255 1405.68535,2255 C1406.16094,2255 1406.63653,2254.81861 1406.9995,2254.45583 L1420.14106,2241.31427 C1420.86681,2240.58834 1420.86681,2239.41152 1420.14106,2238.68577" id="next-white" sketch:type="MSShapeGroup"></path>
        </g>
    </g>
</svg>