<?xml version="1.0" encoding="UTF-8" standalone="no"?>
<svg width="40px" height="30px" viewBox="0 0 40 30" version="1.1" xmlns="http://www.w3.org/2000/svg" xmlns:xlink="http://www.w3.org/1999/xlink" xmlns:sketch="http://www.bohemiancoding.com/sketch/ns">
    <!-- Generator: Sketch 3.4.4 (17249) - http://www.bohemiancoding.com/sketch -->
    <title>prev-white</title>
    <desc>Created with Sketch.</desc>
    <defs></defs>
    <g id="Page-1" stroke="none" stroke-width="1" fill="none" fill-rule="evenodd" sketch:type="MSPage">
        <g id="Artboard-1" sketch:type="MSArtboardGroup" transform="translate(-20.000000, -2225.000000)" fill="#FFFFFF">
            <path d="M45.9995013,2225.54403 C45.2739373,2224.81884 44.0974977,2224.81847 43.3710044,2225.54403 C42.6454404,2226.26978 42.6452545,2227.44659 43.3710044,2228.17253 L53.2800456,2238.08157 L21.8585144,2238.08157 C20.8322427,2238.08157 20,2238.91381 20,2239.94009 C20,2240.96636 20.8322427,2241.7986 21.8585144,2241.7986 L53.3997339,2241.7986 L43.3710044,2251.82733 C42.6452545,2252.55308 42.6452545,2253.72989 43.3710044,2254.45583 C43.7341581,2254.81861 44.2095661,2255 44.6853458,2255 C45.1609396,2255 45.6365334,2254.81861 45.9995013,2254.45583 L59.1410566,2241.31427 C59.8668065,2240.58834 59.8668065,2239.41152 59.1410566,2238.68577 L45.9995013,2225.54403 Z" id="prev-white" sketch:type="MSShapeGroup" transform="translate(39.842684, 2240.000000) scale(-1, 1) translate(-39.842684, -2240.000000) "></path>
        </g>
    </g>
</svg>